REM MD5 bfe98b11872dc8d70c83c23227c08530
FILE "Dengeki PlayStation D41 (Japan).bin" BINARY
  TRACK 01 MODE2/2352
    INDEX 01 00:00:00
  TRACK 02 AUDIO
    INDEX 00 54:04:49
    INDEX 01 54:06:49
  TRACK 03 AUDIO
    INDEX 00 56:12:64
    INDEX 01 56:14:64
  TRACK 04 AUDIO
    INDEX 00 57:41:29
    INDEX 01 57:43:29
  TRACK 05 AUDIO
    INDEX 00 60:57:22
    INDEX 01 60:59:22
REM LEADOUT 64:29:22
